{
    "asset" : {
        "generator" : "Khronos glTF Blender I/O v3.4.49",
        "version" : "2.0"
    },
    "scene" : 0,
    "scenes" : [
        {
            "name" : "Scene",
            "nodes" : [
                0,
                1
            ]
        }
    ],
    "nodes" : [
        {
            "mesh" : 0,
            "name" : "Landscape.001",
            "scale" : [
                3.942852735519409,
                3.942852735519409,
                3.942852735519409
            ],
            "translation" : [
                12.358924865722656,
                0,
                -6.364426612854004
            ]
        },
        {
            "mesh" : 1,
            "name" : "Landscape.002",
            "scale" : [
                3.942852735519409,
                3.942852735519409,
                3.942852735519409
            ],
            "translation" : [
                12.18293285369873,
                0,
                9.431239128112793
            ]
        }
    ],
    "materials" : [
        {
            "doubleSided" : true,
            "name" : "Material.001",
            "pbrMetallicRoughness" : {
                "baseColorFactor" : [
                    0.008870786055922508,
                    0.6920653581619263,
                    0.07370957732200623,
                    1
                ],
                "metallicFactor" : 0,
                "roughnessFactor" : 0.5
            }
        }
    ],
    "meshes" : [
        {
            "name" : "Landscape.001",
            "primitives" : [
                {
                    "attributes" : {
                        "POSITION" : 0,
                        "NORMAL" : 1
                    },
                    "indices" : 2,
                    "material" : 0
                }
            ]
        },
        {
            "name" : "Landscape.002",
            "primitives" : [
                {
                    "attributes" : {
                        "POSITION" : 3,
                        "NORMAL" : 4
                    },
                    "indices" : 5,
                    "material" : 0
                }
            ]
        }
    ],
    "accessors" : [
        {
            "bufferView" : 0,
            "componentType" : 5126,
            "count" : 484,
            "max" : [
                1,
                0.6297925710678101,
                3.027663469314575
            ],
            "min" : [
                -6.225217819213867,
                0,
                -1.7839051485061646
            ],
            "type" : "VEC3"
        },
        {
            "bufferView" : 1,
            "componentType" : 5126,
            "count" : 484,
            "type" : "VEC3"
        },
        {
            "bufferView" : 2,
            "componentType" : 5123,
            "count" : 2646,
            "type" : "SCALAR"
        },
        {
            "bufferView" : 3,
            "componentType" : 5126,
            "count" : 484,
            "max" : [
                1,
                0.6297925710678101,
                0.5828790664672852
            ],
            "min" : [
                -6.183218002319336,
                0,
                -1
            ],
            "type" : "VEC3"
        },
        {
            "bufferView" : 4,
            "componentType" : 5126,
            "count" : 484,
            "type" : "VEC3"
        },
        {
            "bufferView" : 5,
            "componentType" : 5123,
            "count" : 2646,
            "type" : "SCALAR"
        }
    ],
    "bufferViews" : [
        {
            "buffer" : 0,
            "byteLength" : 5808,
            "byteOffset" : 0,
            "target" : 34962
        },
        {
            "buffer" : 0,
            "byteLength" : 5808,
            "byteOffset" : 5808,
            "target" : 34962
        },
        {
            "buffer" : 0,
            "byteLength" : 5292,
            "byteOffset" : 11616,
            "target" : 34963
        },
        {
            "buffer" : 0,
            "byteLength" : 5808,
            "byteOffset" : 16908,
            "target" : 34962
        },
        {
            "buffer" : 0,
            "byteLength" : 5808,
            "byteOffset" : 22716,
            "target" : 34962
        },
        {
            "buffer" : 0,
            "byteLength" : 5292,
            "byteOffset" : 28524,
            "target" : 34963
        }
    ],
    "buffers" : [
        {
            "byteLength" : 33816,
            "uri" : "data:application/octet-stream;base64,"
        }
    ]
}
