{
    "asset" : {
        "generator" : "Khronos glTF Blender I/O v3.4.49",
        "version" : "2.0"
    },
    "scene" : 0,
    "scenes" : [
        {
            "name" : "Scene",
            "nodes" : [
                0,
                2
            ]
        }
    ],
    "nodes" : [
        {
            "mesh" : 0,
            "name" : "Sphere",
            "scale" : [
                2.0467305183410645,
                2.0467305183410645,
                2.0467305183410645
            ],
            "translation" : [
                0,
                0.8913746476173401,
                0
            ]
        },
        {
            "mesh" : 1,
            "name" : "leaves"
        },
        {
            "children" : [
                1
            ],
            "mesh" : 2,
            "name" : "tree"
        }
    ],
    "materials" : [
        {
            "doubleSided" : true,
            "name" : "Material.003",
            "pbrMetallicRoughness" : {
                "baseColorFactor" : [
                    0.3903729021549225,
                    0.7293412089347839,
                    0.03684856370091438,
                    1
                ],
                "metallicFactor" : 0,
                "roughnessFactor" : 0.5
            }
        },
        {
            "doubleSided" : true,
            "name" : "Material",
            "pbrMetallicRoughness" : {
                "baseColorFactor" : [
                    0.37246325612068176,
                    0.7420214414596558,
                    0.10390286147594452,
                    1
                ],
                "metallicFactor" : 0,
                "roughnessFactor" : 0.5
            }
        },
        {
            "doubleSided" : true,
            "name" : "Material.004",
            "pbrMetallicRoughness" : {
                "baseColorFactor" : [
                    0.6678467988967896,
                    0.4552731513977051,
                    0.26689985394477844,
                    1
                ],
                "metallicFactor" : 0,
                "roughnessFactor" : 0.5
            }
        }
    ],
    "meshes" : [
        {
            "name" : "Sphere",
            "primitives" : [
                {
                    "attributes" : {
                        "POSITION" : 0,
                        "TEXCOORD_0" : 1,
                        "NORMAL" : 2
                    },
                    "indices" : 3,
                    "material" : 0
                }
            ]
        },
        {
            "name" : "leaves.009",
            "primitives" : [
                {
                    "attributes" : {
                        "POSITION" : 4,
                        "TEXCOORD_0" : 5,
                        "NORMAL" : 6
                    },
                    "indices" : 7,
                    "material" : 1
                }
            ]
        },
        {
            "name" : "tree.010",
            "primitives" : [
                {
                    "attributes" : {
                        "POSITION" : 8,
                        "TEXCOORD_0" : 9,
                        "NORMAL" : 10
                    },
                    "indices" : 11,
                    "material" : 2
                }
            ]
        }
    ],
    "accessors" : [
        {
            "bufferView" : 0,
            "componentType" : 5126,
            "count" : 992,
            "max" : [
                1.044443130493164,
                -0.038852810859680176,
                1.0444425344467163
            ],
            "min" : [
                -1.0444422960281372,
                -0.4053204357624054,
                -1.0444433689117432
            ],
            "type" : "VEC3"
        },
        {
            "bufferView" : 1,
            "componentType" : 5126,
            "count" : 992,
            "type" : "VEC2"
        },
        {
            "bufferView" : 2,
            "componentType" : 5126,
            "count" : 992,
            "type" : "VEC3"
        },
        {
            "bufferView" : 3,
            "componentType" : 5123,
            "count" : 1440,
            "type" : "SCALAR"
        },
        {
            "bufferView" : 4,
            "componentType" : 5126,
            "count" : 20702,
            "max" : [
                12.214966773986816,
                20.298477172851562,
                10.720183372497559
            ],
            "min" : [
                -12.53394603729248,
                -0.07405483722686768,
                -12.875910758972168
            ],
            "type" : "VEC3"
        },
        {
            "bufferView" : 5,
            "componentType" : 5126,
            "count" : 20702,
            "type" : "VEC2"
        },
        {
            "bufferView" : 6,
            "componentType" : 5126,
            "count" : 20702,
            "type" : "VEC3"
        },
        {
            "bufferView" : 7,
            "componentType" : 5123,
            "count" : 31056,
            "type" : "SCALAR"
        },
        {
            "bufferView" : 8,
            "componentType" : 5126,
            "count" : 10619,
            "max" : [
                12.026310920715332,
                19.889545440673828,
                10.54000473022461
            ],
            "min" : [
                -12.35578727722168,
                0,
                -12.463922500610352
            ],
            "type" : "VEC3"
        },
        {
            "bufferView" : 9,
            "componentType" : 5126,
            "count" : 10619,
            "type" : "VEC2"
        },
        {
            "bufferView" : 10,
            "componentType" : 5126,
            "count" : 10619,
            "type" : "VEC3"
        },
        {
            "bufferView" : 11,
            "componentType" : 5123,
            "count" : 50688,
            "type" : "SCALAR"
        }
    ],
    "bufferViews" : [
        {
            "buffer" : 0,
            "byteLength" : 11904,
            "byteOffset" : 0,
            "target" : 34962
        },
        {
            "buffer" : 0,
            "byteLength" : 7936,
            "byteOffset" : 11904,
            "target" : 34962
        },
        {
            "buffer" : 0,
            "byteLength" : 11904,
            "byteOffset" : 19840,
            "target" : 34962
        },
        {
            "buffer" : 0,
            "byteLength" : 2880,
            "byteOffset" : 31744,
            "target" : 34963
        },
        {
            "buffer" : 0,
            "byteLength" : 248424,
            "byteOffset" : 34624,
            "target" : 34962
        },
        {
            "buffer" : 0,
            "byteLength" : 165616,
            "byteOffset" : 283048,
            "target" : 34962
        },
        {
            "buffer" : 0,
            "byteLength" : 248424,
            "byteOffset" : 448664,
            "target" : 34962
        },
        {
            "buffer" : 0,
            "byteLength" : 62112,
            "byteOffset" : 697088,
            "target" : 34963
        },
        {
            "buffer" : 0,
            "byteLength" : 127428,
            "byteOffset" : 759200,
            "target" : 34962
        },
        {
            "buffer" : 0,
            "byteLength" : 84952,
            "byteOffset" : 886628,
            "target" : 34962
        },
        {
            "buffer" : 0,
            "byteLength" : 127428,
            "byteOffset" : 971580,
            "target" : 34962
        },
        {
            "buffer" : 0,
            "byteLength" : 101376,
            "byteOffset" : 1099008,
            "target" : 34963
        }
    ],
    "buffers" : [
        {
            "byteLength" : 1200384,
            "uri" : "data:application/octet-stream;base64,"
        }
    ]
}
